<svg width="290" height="290" viewBox="0 0 290 290" fill="none" xmlns="http://www.w3.org/2000/svg">
<rect x="20.5" y="86.4999" width="184" height="184" rx="22.5" stroke="black" stroke-width="25"/>
<path d="M218.5 86C218.5 77.9919 212.008 71.5 204 71.5H73.5C65.4919 71.5 59 77.9919 59 86C59 94.0081 65.4919 100.5 73.5 100.5H189.5V216.5C189.5 224.508 195.992 231 204 231C212.008 231 218.5 224.508 218.5 216.5V86ZM86.253 224.253L214.253 96.2531L193.747 75.747L65.747 203.747L86.253 224.253Z" fill="white"/>
<path d="M112.5 86H204M204 86V174.5M204 86L96 194" stroke="black" stroke-width="25" stroke-linecap="round" stroke-linejoin="round"/>
</svg>
