<svg width="91" height="218" viewBox="0 0 91 218" fill="none" xmlns="http://www.w3.org/2000/svg">
<path d="M0 64H7C18 64 10.4914 46 25 46C39.5 46 29.5 64 39.5 64H46M91 64H84C73 64 80.5086 82 66 82C51.5 82 61.5 64 51.5 64H45" stroke="#8774FF" stroke-opacity="0.3" class="purple"/>
<path d="M0 124H7C18 124 10.4914 106 25 106C39.5 106 29.5 124 39.5 124H46M91 124H84C73 124 80.5086 142 66 142C51.5 142 61.5 124 51.5 124H45" stroke="#8774FF" stroke-opacity="0.3"  class="purple"/>
<path d="M0 184H7C18 184 10.4914 166 25 166C39.5 166 29.5 184 39.5 184H46M91 184H84C73 184 80.5086 202 66 202C51.5 202 61.5 184 51.5 184H45" stroke="#8774FF" stroke-opacity="0.3"  class="purple"/>
<path d="M0 49H7C18 49 10.4914 31 25 31C39.5 31 29.5 49 39.5 49H46M91 49H84C73 49 80.5086 67 66 67C51.5 67 61.5 49 51.5 49H45" stroke="#92C7F9" stroke-opacity="0.5"  class="blue"/>
<path d="M0 109H7C18 109 10.4914 91 25 91C39.5 91 29.5 109 39.5 109H46M91 109H84C73 109 80.5086 127 66 127C51.5 127 61.5 109 51.5 109H45" stroke="#92C7F9" stroke-opacity="0.5"  class="blue"/>
<path d="M0 169H7C18 169 10.4914 151 25 151C39.5 151 29.5 169 39.5 169H46M91 169H84C73 169 80.5086 187 66 187C51.5 187 61.5 169 51.5 169H45" stroke="#92C7F9" stroke-opacity="0.5"  class="blue"/>
<path d="M0 34H7C18 34 10.4914 16 25 16C39.5 16 29.5 34 39.5 34H46M91 34H84C73 34 80.5086 52 66 52C51.5 52 61.5 34 51.5 34H45" stroke="#8774FF" stroke-opacity="0.3"  class="purple"/>
<path d="M0 94H7C18 94 10.4914 76 25 76C39.5 76 29.5 94 39.5 94H46M91 94H84C73 94 80.5086 112 66 112C51.5 112 61.5 94 51.5 94H45" stroke="#8774FF" stroke-opacity="0.3" class="purple"/>
<path d="M0 154H7C18 154 10.4914 136 25 136C39.5 136 29.5 154 39.5 154H46M91 154H84C73 154 80.5086 172 66 172C51.5 172 61.5 154 51.5 154H45" stroke="#8774FF" stroke-opacity="0.3" class="purple"/>
<path d="M0 19H7C18 19 10.4914 0.999993 25 1C39.5 1.00001 29.5 19 39.5 19H46M91 19H84C73 19 80.5086 37 66 37C51.5 37 61.5 19 51.5 19H45" stroke="#EE61FB" stroke-opacity="0.5" class="pink" />
<path d="M0 79H7C18 79 10.4914 61 25 61C39.5 61 29.5 79 39.5 79H46M91 79H84C73 79 80.5086 97 66 97C51.5 97 61.5 79 51.5 79H45" stroke="#EE61FB" stroke-opacity="0.5" class="pink"/>
<path d="M0 139H7C18 139 10.4914 121 25 121C39.5 121 29.5 139 39.5 139H46M91 139H84C73 139 80.5086 157 66 157C51.5 157 61.5 139 51.5 139H45" stroke="#EE61FB" stroke-opacity="0.5" class="pink"/>
<path d="M0 199H7C18 199 10.4914 181 25 181C39.5 181 29.5 199 39.5 199H46M91 199H84C73 199 80.5086 217 66 217C51.5 217 61.5 199 51.5 199H45" stroke="#EE61FB" stroke-opacity="0.5" class="pink"/>
</svg>